<svg xmlns="http://www.w3.org/2000/svg" xmlns:xlink="http://www.w3.org/1999/xlink" version="1.1" x="0px" y="0px" viewBox="0 0 100 125" enable-background="new 0 0 100 100" xml:space="preserve"><path d="M42.686,81.147h-1.797l-0.815-5.143h1.773L42.686,81.147z M41.114,56.076l-4.022-10.893l-1.332,3.609l1.154,7.284H41.114z   M63.832,45.18l-4.024,10.896h4.353l1.11-7.004L63.832,45.18z M34.775,42.576l0.573,3.618l1.335-3.618H34.775z M63.424,42.576  h-8.099l4.048,10.966L63.424,42.576z M37.526,59.933h26.023l0.408-2.571H37.119L37.526,59.933z M58.938,56.076l-4.022-10.893  l-4.02,10.893H58.938z M65.682,46.476l0.618-3.9h-2.06L65.682,46.476z M54.654,76.005h-1.912l-0.168,5.143h1.576L54.654,76.005z   M51.288,81.147l0.168-5.143h-1.915l0.168,5.143H51.288z M45.556,81.147l-0.504-5.143H43.15l0.839,5.143H45.556z M39.462,72.147  h22.151l1.732-10.929H37.73L39.462,72.147z M57.849,76.005h-1.903l-0.504,5.143h1.567L57.849,76.005z M48.424,81.147l-0.168-5.143  h-1.912l0.504,5.143H48.424z M41.296,83.719h18.483l0.204-1.286H41.093L41.296,83.719z M43.13,95.29h14.815l1.63-10.286H41.5  L43.13,95.29z M39.87,74.719h21.336l0.204-1.286H39.666L39.87,74.719z M58.313,81.147h1.874l0.815-5.143h-1.85L58.313,81.147z   M36.459,27.147h28.158c-0.588-0.711-1.263-1.359-2.016-1.929H38.475C37.722,25.788,37.047,26.436,36.459,27.147z M34.572,41.29  h31.932l0.408-2.571H34.164L34.572,41.29z M33.844,36.699l0.116,0.734h33.155l0.116-0.734c0.464-2.925-0.174-5.85-1.685-8.266  H35.529C34.018,30.849,33.381,33.774,33.844,36.699z M40.358,23.933h20.359c-0.791-0.539-1.475-1.194-2.051-1.929H42.409  C41.833,22.739,41.15,23.395,40.358,23.933z M56.695,16.346c0-3.674,2.189-6.994,5.566-8.441c0.87-0.373,1.434-1.228,1.434-2.174  V5.29H37.38v0.44c0,0.946,0.564,1.802,1.434,2.174c3.377,1.447,5.566,4.767,5.566,8.441c0,1.551-0.393,3.049-1.109,4.373h14.534  C57.088,19.396,56.695,17.897,56.695,16.346z M54.508,42.576h-8.095l4.048,10.965L54.508,42.576z M50.027,56.076l-4.022-10.894  l-4.021,10.894H50.027z M45.597,42.576h-8.096l4.048,10.965L45.597,42.576z"/><text x="0" y="115" fill="#000000" font-size="5px" font-weight="bold" font-family="'Helvetica Neue', Helvetica, Arial-Unicode, Arial, Sans-serif">Created by Laymik</text><text x="0" y="120" fill="#000000" font-size="5px" font-weight="bold" font-family="'Helvetica Neue', Helvetica, Arial-Unicode, Arial, Sans-serif">from the Noun Project</text></svg>