<?xml version="1.0" encoding="UTF-8"?>
<svg width="173.3mm" height="116.68mm" version="1.1" viewBox="0 0 173.3 116.68" 
xmlns="http://www.w3.org/2000/svg" 
xmlns:xlink="http://www.w3.org/1999/xlink" >
 <g>
  <rect x="4.656e-9" y="4.5831e-8" width="135.22" height="116.82" fill="#fefee4"/>
 </g>
 <g>
  <path d="m0 8.1851 0.033409-2.8397 4.3097-1.5368 2.7395-0.56795 2.205 0.13363 2.4722 0.60136 3.2072 1.47 1.47 1.4032 1.0023 0.26727 1.3029 2.94 0.83522 3.4077 2.5725 0.43431 2.5391-0.33409 0.90203-0.23386 0.16704-0.83522 1.2027-0.80181 4.6104-3.2406 0.70158-1.0691s0.80181-0.7684 0.96885-0.83522c0.16704-0.066817 1.0691-0.70158 1.0691-0.70158l0.26727-1.4032 1.1025-1.9377 1.5702-2.4722h4.0425l-1.2695 3.5413-0.56795 0.7684 0.83522 0.73499 3.8754 1.6036 2.94 0.43431 1.637 0.56795 1.2695 0.4009 1.1359 0.3675 1.1359 0.66817 1.5702 0.20045 1.4366 0.4009-2.5725 0.80181-1.7038-0.60136s-1.3698-0.63477-1.4366-0.50113c-0.06682 0.13363-0.66817-0.43431-0.66817-0.43431l-2.4054-0.96885-2.8731-0.20045-2.1716-0.3675-2.5057-0.066817-0.73499-0.20045s-1.0691 0.33409-0.93544 0.4009c0.13364 0.066817-0.30068 1.3029-0.30068 1.3029s-3.4411 2.8731-3.8086 2.8731c-0.3675 0-0.60136 1.7373-0.60136 1.7373l-1.0023 0.26727 0.56795-0.70158-0.26727-0.3675-1.7373 1.5034-1.1693 0.60136-1.7038 0.7684-0.93544 0.63476-1.47 0.20045-0.80181 0.7684-0.60136 0.96885-1.0357 0.30068-1.9377-0.60136-2.205-0.86863-0.90204-1.1693-0.26727-0.90204s-0.63476-0.50113-0.86863-0.66817c-0.23386-0.16704-0.46772-0.80181-0.46772-0.80181l-0.86863-3.0736-0.46772-1.47-0.93544-1.0357-1.1693-0.26727-2.3052-0.43431-2.5391-0.63477-1.4366-0.10023-1.4366-0.46772-1.3029 0.10023-0.43431 0.53454-0.60136 0.3675-0.90203 1.0357z" fill="#c6ecff"/>
  <path d="m0.033408 5.3454 4.3097-1.5368 2.7395-0.56795 2.205 0.13363 2.4722 0.60136 3.2072 1.47 1.47 1.4032 1.0023 0.26727 1.3029 2.94 0.83522 3.4077 2.5725 0.43431 2.5391-0.33409 0.90203-0.23386 0.16704-0.83522 1.2027-0.80181 4.6104-3.2406 0.70158-1.0691s0.80181-0.7684 0.96885-0.83522c0.16704-0.066817 1.0691-0.70158 1.0691-0.70158l0.26727-1.4032 1.1025-1.9377 1.5702-2.4722m4.0425 0-1.2695 3.5413-0.56795 0.7684 0.83522 0.73499 3.8754 1.6036 2.94 0.43431 1.637 0.56795 1.2695 0.4009 1.1359 0.3675 1.1359 0.66817 1.5702 0.20045 1.4366 0.4009-2.5725 0.80181-1.7038-0.60136s-1.3698-0.63476-1.4366-0.50113c-0.06682 0.13363-0.66817-0.43431-0.66817-0.43431l-2.4054-0.96885-2.8731-0.20045-2.1716-0.3675-2.5057-0.066817-0.73499-0.20045s-1.0691 0.33409-0.93544 0.4009c0.13363 0.066817-0.30068 1.3029-0.30068 1.3029s-3.4411 2.8731-3.8086 2.8731-0.60136 1.7373-0.60136 1.7373l-1.0023 0.26727 0.56795-0.70158-0.26727-0.3675-1.7373 1.5034-1.1693 0.60136-1.7038 0.7684-0.93544 0.63476-1.47 0.20045-0.80181 0.7684-0.60136 0.96885-1.0357 0.30068-1.9377-0.60136-2.205-0.86863-0.90204-1.1693-0.26727-0.90204s-0.63476-0.50113-0.86863-0.66817c-0.23386-0.16704-0.46772-0.80181-0.46772-0.80181l-0.86863-3.0736-0.46772-1.47-0.93544-1.0357-1.1693-0.26727-2.3052-0.43431-2.5391-0.63477-1.4366-0.10023-1.4366-0.46772-1.3029 0.10023-0.43431 0.53454-0.60136 0.3675-0.90204 1.0357-1.3698 0.20045" fill="none" stroke="#054a6b" stroke-width=".1"/>
  <path d="m4.205 116.7 1.3702-0.47247 3.0711-0.66146 1.7954-0.89769h1.7954l2.3151-0.99219h1.7009l1.4174-0.99219 2.1734-0.8032 2.5513-0.56696 0.47247 0.66146 7.8903-0.70871 1.2757-0.33073 5.4334-0.23623 5.9059-0.37798 1.6536-0.89769 2.5986-2.9293 0.42522-1.0394h0.51972l0.66146-0.47247 0.42522-0.8032 2.0789-0.85045 2.3624-0.56696 2.0789 0.18898 5.1027-0.75595 2.5986-0.37797 0.99219-0.70871 2.3151-0.14174 2.4096-0.85045 3.4018-0.56696s3.3073-0.75595 3.6853-0.75595 5.3389-1.2284 5.3389-1.2284l0.85045-0.75595 1.6536-0.51972 0.99219-0.75595 1.3702-0.61421 0.89769-1.9844 0.70871-1.9371 0.28348-4.5357-0.42522-2.6458 0.14174-2.6931 0.33073-2.0789 0.7087-1.4647-0.23624-1.7954 1.1812-1.1339 0.23623-0.8032 6.4728-5.5279 2.3624-1.3229 0.7087 0.14174 0.0945 0.66146 0.56696 0.18899 0.94494-1.6064 1.1812-1.0394 2.1734-2.4568 1.3229-1.3229 1.4174-0.37798 2.5986-1.6064 0.85045-0.99219 3.9215-0.18899 0.33073 0.33073h2.1734l1.2757 0.94494 2.0789 0.28348 1.8426-0.37798 3.1656-1.7009 3.1183-1.0867 1.7481 0.09449 0.47247-0.89769 3.7325-0.8032-0.18899 2.1734-1.3229 0.33073-2.0316 0.18899-3.827 1.3229-1.4174 0.89769-1.7954 0.56696-1.8899 1.1339-3.4963-0.23624-2.6931-0.37798-1.5119-0.61421-2.1261 0.04725-2.0316 1.1812-2.5986 1.1812-0.66146 1.4174-0.85045 0.42522-2.2679 1.8899-1.6536 0.94494-1.7481 1.5592-1.1339 1.0867-1.9844 0.7087s-1.8426 1.0394-1.7481 0.7087c0.0945-0.33073-0.56696 0.42522-0.56696 0.42522l0.04725 1.0867 0.61421-0.04725 0.75595 1.1812 2.8348 0.47247 2.5041 0.33073 1.4174-1.3702 2.0789-1.3229 1.3229 0.28348 1.9371 1.3229-2.3151 0.09449-3.6853 1.5592-1.6536 1.0394h-3.3073l-1.7481 0.7087 0.18899 0.7087-1.5592 2.9293-1.2757 2.5513-0.7087 0.66146-0.14174 3.5435-0.56696 4.7247 2.4096-0.33073 0.94494 0.33073-1.7009 0.94494-3.4018 1.9371-6.9453 4.5357-2.4096 0.0472-5.1499 2.0316-2.7403 0.0945-7.3233 1.9371-1.9844 0.42522-3.4963 0.28348-3.1655-0.14174-2.8821 0.99219-3.0711 0.18899-1.4174 1.2284-0.33073 1.3702-0.70871 1.6064-1.7481 2.0789-1.7481 0.75596-1.3702 0.99218-1.4647 1.1339-2.6458 0.37798-3.0238-0.23624-1.6064-0.37797-2.3624 0.47247-5.3389 1.3229-2.4096 0.14174z" fill="#c6ecff"/>
  <path d="m4.205 116.7 1.3702-0.47247 3.0711-0.66146 1.7954-0.89769h1.7954l2.3151-0.99219h1.7009l1.4174-0.99219 2.1734-0.8032 2.5513-0.56696 0.47247 0.66146 7.8903-0.70871 1.2757-0.33073 5.4334-0.23623 5.9059-0.37798 1.6536-0.89769 2.5986-2.9293 0.42522-1.0394h0.51972l0.66146-0.47247 0.42522-0.8032 2.0789-0.85045 2.3624-0.56696 2.0789 0.18898 5.1027-0.75595 2.5986-0.37797 0.99219-0.70871 2.3151-0.14174 2.4096-0.85045 3.4018-0.56696s3.3073-0.75595 3.6853-0.75595 5.3389-1.2284 5.3389-1.2284l0.85045-0.75596 1.6536-0.51971 0.99219-0.75596 1.3702-0.61421 0.89769-1.9844 0.70871-1.9371 0.28348-4.5357-0.42522-2.6458 0.14174-2.6931 0.33073-2.0789 0.7087-1.4647-0.23624-1.7954 1.1812-1.1339 0.23623-0.8032 6.4728-5.5279 2.3624-1.3229 0.7087 0.14174 0.0945 0.66146 0.56696 0.18899 0.94494-1.6064 1.1812-1.0394 2.1734-2.4568 1.3229-1.3229 1.4174-0.37798 2.5986-1.6064 0.85045-0.99219 3.9215-0.18899 0.33072 0.33073h2.1734l1.2757 0.94494 2.0789 0.28348 1.8426-0.37798 3.1656-1.7009 3.1183-1.0867 1.7481 0.09449 0.47246-0.89769 3.7325-0.8032m-0.18898 2.1734-1.3229 0.33073-2.0316 0.18899-3.827 1.3229-1.4174 0.89769-1.7954 0.56696-1.8899 1.1339-3.4963-0.23624-2.6931-0.37798-1.5119-0.61421-2.1261 0.04725-2.0316 1.1812-2.5986 1.1812-0.66145 1.4174-0.85045 0.42522-2.2679 1.8899-1.6536 0.94494-1.7481 1.5592-1.1339 1.0867-1.9844 0.7087s-1.8426 1.0394-1.7481 0.7087c0.0945-0.33073-0.56696 0.42522-0.56696 0.42522l0.04725 1.0867 0.61421-0.04725 0.75595 1.1812 2.8348 0.47247 2.5041 0.33073 1.4174-1.3702 2.0789-1.3229 1.3229 0.28348 1.9371 1.3229-2.3151 0.09449-3.6853 1.5592-1.6536 1.0394h-3.3073l-1.7481 0.7087 0.18899 0.7087-1.5592 2.9293-1.2757 2.5513-0.7087 0.66146-0.14174 3.5435-0.56696 4.7247 2.4096-0.33073 0.94494 0.33073-1.7009 0.94494-3.4018 1.9371-6.9453 4.5357-2.4096 0.0472-5.1499 2.0316-2.7403 0.0945-7.3233 1.9371-1.9844 0.42522-3.4963 0.28348-3.1655-0.14174-2.8821 0.99219-3.0711 0.18899-1.4174 1.2284-0.33073 1.3702-0.70871 1.6064-1.7481 2.0789-1.7481 0.75596-1.3702 0.99218-1.4647 1.1339-2.6458 0.37798-3.0238-0.23624-1.6064-0.37797-2.3624 0.47247-5.3389 1.3229-2.4096 0.14174" fill="none" stroke="#054a6b" stroke-width=".1"/>
 </g>
 <g fill="none" stroke="#c87137">
  <path d="m88.606 89.198-33.611 5.0602" stroke-width=".75"/>
  <path d="m57.209 93.925-1.5517-11.384-16.395 2.2679-1.8899-16.442-4.394 0.47247-4.6775-38.27 44.648-5.1972 3.8743 37.939 1.4174 3.5908 0.61421 7.7485" stroke-width=".75"/>
  <g stroke-width=".5">
   <path d="m78.045 66.405-3.2598 0.5122 0.56795 8.3522 3.502-0.61948"/>
   <path d="m74.785 66.918-1.3698 0.08352"/>
   <path d="m73.182 63.694 0.23386 3.3075 0.26727 4.9779"/>
   <path d="m53.368 82.857-1.2069-15.719-14.788 1.2284"/>
  </g>
  <g stroke-width=".75">
   <path d="m54.222 94.396-32.969 4.4601-9.3932-78.444 4.744-0.70158"/>
   <path d="m22.417 18.442 3.6081-0.43431-0.10023-0.83522 28.965-3.842"/>
   <path d="m55.592 13.13 55.926-7.1495 2.8063 27.829"/>
  </g>
  <path d="m71.579 64.917 0.51972 13.276-15.875 1.9844-1.0394-13.04z"/>
  <path d="m25.925 17.172-1.0614 0.09672 0.11694 0.86425"/>
  <path d="m19.3 7.0398-0.93772 2.1597" stroke-width=".5"/>
  <path d="m73.23 64.381-1.6511 0.53639" stroke-width=".5"/>
  <path d="m72.099 78.194 1.8345-0.25135"/>
 </g>
 <g fill="none" stroke="#773281">
  <path d="m101.82 87.832-8.9053 1.0254" stroke-width=".5"/>
  <path d="m88.544 90.192-2.5545 0.40436" stroke-width=".5"/>
  <path d="m88.703 87.645-65.883 9.7788-3.8743-31.325"/>
  <path d="m67.941 93.502-0.14382-2.7543-0.04517-1.8286" stroke-width=".5"/>
  <path d="m78.046 89.226-3.211-3.0987" stroke-width=".5"/>
  <g>
   <path d="m85.132 88.175-0.60767-6.9915-7.1495-6.0804m-1.6036-10.156-2.6059-2.205-29.734 3.7418"/>
   <path d="m66.416 83.589-1.2027-9.5549-0.70718-10.203-0.42871-6.7691"/>
   <path d="m75.17 56.06-11.092 1.0023-30.736 3.0736-3.1404-28.264 41.894-5.2118"/>
   <path d="m61.339 27.998 1.7271 29.165"/>
   <path d="m31.638 44.803 30.534-2.7356 14.085-1.4345 36.947-2.0789"/>
   <path d="m46.869 35.624 0.66199 7.7544 0.85441 15.253"/>
  </g>
  <g stroke-width=".5">
   <path d="m90.714 56.885 10.914-0.47247"/>
   <path d="m89.486 58.303 11.906-0.51972"/>
   <path d="m99.602 57.861 0.30806 9.2072"/>
  </g>
  <path d="m21.542 87.085 16.611-2.3601"/>
  <path d="m35.281 85.133 1.5814 10.207"/>
  <path d="m28.779 86.056 0.42053 6.8198" stroke-width=".5"/>
  <g>
   <path d="m49.182 93.51 0.06193-8.786"/>
   <path d="m20.389 77.766 20.637-1.5273"/>
   <path d="m53.241 65.249 1.0147 16.068"/>
   <path d="m53.821 74.432 11.389-0.4561 5.0153-0.07636"/>
   <path d="m57.597 72.163 7.4503-0.53687 5.5123-0.33176"/>
   <path d="m51.249 68.287 0.86863 13.23"/>
  </g>
  <path d="m56.594 83.655 3.0736-0.26727" stroke-width=".5"/>
  <path d="m63.009 82.119 3.1541-0.54467 8.7394-2.4621-0.4009-2.6059-1.0023 0.06682-0.06682-3.7418"/>
  <path d="m19.356 69.409 3.6965 2.2188 3.2072 0.46772 4.2763-0.46772"/>
  <g stroke-width=".5">
   <path d="m28.063 78.845 0.4009 2.4722"/>
   <path d="m35.68 67.753-1.0691-3.7418"/>
   <path d="m39.428 59.527-0.34004 7.424"/>
   <path d="m26.192 63.811 0.80181 4.744"/>
  </g>
  <path d="m15.635 61.606 15.368-1.9377"/>
  <path d="m25.519 60.359-0.92996-7.5737"/>
  <path d="m18.241 58.064 0.29637 3.1754" stroke-width=".5"/>
  <path d="m14.566 48.242 17.275-1.615"/>
  <g stroke-width=".5">
   <path d="m24.388 50.046-0.40203-2.6848-0.60023-3.5293"/>
   <path d="m16.838 45.302 0.32389 2.6973"/>
   <path d="m75.303 58.732 2.5391-0.26727"/>
  </g>
  <path d="m78.711 66.483-0.86862-8.0181-1.8672-17.804-1.7409-15.872-2.5391-12.829"/>
  <path d="m27.996 17.573 43.699-5.6127 38.42-4.6104 3.0888 31.204"/>
  <path d="m16.446 14.388-1.729 4.9358-3.5908 0.44885-0.07087 4.1341" stroke-width=".5"/>
  <path d="m14.387 25.348-1.1103-3.7798 2.5277-0.54334" stroke-width=".5"/>
  <path d="m27.462 32.239-12.361 1.8375"/>
  <path d="m14.767 31.705 0.33409 2.372 0.43431 2.8063" stroke-width=".5"/>
  <path d="m22.183 28.665 0.49752 4.2854 0.3377 3.3986" stroke-width=".5"/>
  <path d="m65.66 77.581-3.3921-3.4871"/>
  <g stroke-width=".5">
   <path d="m64.853 68.83 4.5055-0.36933"/>
   <path d="m116.33 57.764-1.1359-24.221-2.9066-28.464-85.332 11.163"/>
   <path d="m29.92 17.326 0.48228 5.6592"/>
   <path d="m30.266 21.393-6.8133 0.65661"/>
   <path d="m29.867 28.999-1.5368-5.8131"/>
   <path d="m41.288 15.866 1.4079 11.529"/>
  </g>
  <path d="m55.624 14.025 1.3048 11.901"/>
  <path d="m60.935 13.342 0.0027 12.182"/>
  <g stroke-width=".5">
   <path d="m89.134 99.357 2.6059-0.20045"/>
   <path d="m105.77 38.972-0.1346-3.0907"/>
   <path d="m103.17 42.429-0.12403-3.3037-0.0764-2.7767"/>
   <path d="m93.077 35.881-0.06305 3.8087-0.60512 3.1403"/>
   <path d="m87.998 36.215 0.53369 3.7267"/>
   <path d="m84.192 40.186-0.06843 3.9135"/>
   <path d="m36.349 41.16 0.32078 3.1923"/>
   <path d="m36.349 47.975-0.2335-3.5734"/>
   <path d="m45.302 48.042-0.58943-4.4105"/>
   <path d="m52.051 46.304-0.20389-3.3124"/>
   <path d="m55.525 46.104 0.05734-3.4467"/>
   <path d="m60.202 45.904-1.4688-3.5286"/>
   <path d="m68.221 45.169-0.35517-3.6815"/>
   <path d="m71.428 45.102-0.20195-3.9569-0.06532-2.5912"/>
  </g>
 </g>
 <g fill="none" stroke="#ff5700" stroke-width=".5">
  <path d="m104.13 69.359-3.4963-3.2128"/>
  <path d="m94.305 85.895h-6.6146"/>
  <path d="m18.993 9.3549-2.3151 6.0476"/>
 </g>
 <g>
  <path transform="matrix(.048365 0 0 .3579 167.73 85.247)" d="m-925.35 53.452-73.007 0.32508 36.222-63.388z" fill="#4a4a4a"/>
  <ellipse cx="121.21" cy="93.151" rx="3.6459" ry="3.6459" fill="none" stroke="#4a4a4f" stroke-width=".49484"/>
  <g font-family="sans-serif" letter-spacing="0px" word-spacing="0px">
   <text x="121.10501" y="79.989204" fill="#4a4a4a" font-size="8.3192px" font-style="italic" stroke-width=".36615px" text-align="center" text-anchor="middle" style="line-height:125%" xml:space="preserve"><tspan x="121.10501" y="79.989204" fill="#4a4a4a" font-size="4.7896px" stroke-width=".36615px">N</tspan></text>
   <text x="114.14315" y="110.3558" fill="#000000" font-size="3.9914px" stroke-width=".29935" style="line-height:7.48379px" xml:space="preserve"><tspan x="114.14315" y="110.3558" fill="#4a4a4a" font-family="sans-serif" font-style="italic" stroke-width=".29935">0</tspan></text>
   <text x="122.69189" y="110.43882" fill="#000000" font-size="3.9914px" stroke-width=".299" style="line-height:7.48379px" xml:space="preserve"><tspan x="122.69189" y="110.43882" fill="#4a4a4a" font-family="sans-serif" font-style="italic" stroke-width=".299">100 m</tspan></text>
  </g>
  <rect x="114.7" y="112.38" width="6.5023" height="1.6254" fill="none" stroke="#4a4a4a" stroke-width=".31651"/>
  <rect x="121.21" y="112.38" width="6.5023" height="1.6254" fill="#4a4a4a" stroke="#4a4a4a" stroke-width=".31651"/>
 </g>
 <g>
  <g font-family="sans-serif" stroke-width=".26458">
   <text x="136.76254" y="10.970806" fill="#000000" font-size="5.6444px" style="line-height:1.25" xml:space="preserve"><tspan x="136.76254" y="10.970806">LAYOUT OF</tspan><tspan x="136.76254" y="18.026356">DHOLAVIRA</tspan></text>
   <text x="136.17383" y="48.375786" font-size="2.8222px" style="line-height:1.25" xml:space="preserve"><tspan x="136.17383" y="48.375786">Citadel:</tspan><tspan x="136.17383" y="51.903561"><a xlink:href="/eachSiteAreaPage">  A. Castle </a> </tspan><tspan x="136.17383" y="55.431335">  B. Bailey</tspan><tspan x="136.17383" y="58.95911">C. Middle Town</tspan><tspan x="136.17383" y="62.486885">D. Lower Town</tspan><tspan x="136.17383" y="66.014664">E. Ceremonial Ground</tspan><tspan x="136.17383" y="69.542435">F. Reservoir</tspan><tspan x="136.17383" y="73.070213">G. North Gate</tspan><tspan x="136.17383" y="76.597984">H. Water Channel</tspan><tspan x="136.17383" y="80.125763">I. Annex</tspan><tspan x="136.17383" y="83.653534">J. Cemetery</tspan></text>
   <g font-size="4.2333px">
    <text x="58.77359" y="77.939186" style="line-height:1.25" xml:space="preserve"><tspan x="58.77359" y="77.939186" stroke-width=".26458"><a xlink:href="/eachSiteAreaPage" target="__blank"> A</a></tspan></text>
    <text x="44.767643" y="72.697311" style="line-height:1.25" xml:space="preserve"><tspan x="44.767643" y="72.697311" stroke-width=".26458"><a xlink:href="/eachSiteAreaPage">B</a></tspan></text>
    <text x="52.117558" y="49.444862" style="line-height:1.25" xml:space="preserve"><tspan x="52.117558" y="49.444862" stroke-width=".26458"><a xlink:href="/eachSiteAreaPage">C</a></tspan></text>
    <text x="90.069832" y="48.776688" style="line-height:1.25" xml:space="preserve"><tspan x="90.069832" y="48.776688" stroke-width=".26458"><a xlink:href="/eachSiteAreaPage">D</a></tspan></text>
    <text x="58.799297" y="62.407433" style="line-height:1.25" xml:space="preserve"><tspan x="58.799297" y="62.407433" stroke-width=".26458"><a xlink:href="/eachSiteAreaPage">E</a></tspan></text>
    <text x="75.703247" y="71.673203" style="line-height:1.25" xml:space="preserve"><tspan x="75.703247" y="71.673203" stroke-width=".26458"><a xlink:href="/eachSiteAreaPage">F</a></tspan></text>
    <text x="65.136871" y="67.346596" style="line-height:1.25" xml:space="preserve"><tspan x="65.136871" y="67.346596" stroke-width=".26458"><a xlink:href="/eachSiteAreaPage">G</a></tspan></text>
    <text x="69.623711" y="85.526245" style="line-height:1.25" xml:space="preserve"><tspan x="69.623711" y="85.526245" stroke-width=".26458"><a xlink:href="/eachSiteAreaPage">I</a></tspan></text>
    <!-- H Down -->
    <text x="88.599846" y="94.07888" style="line-height:1.25" xml:space="preserve"><tspan x="88.599846" y="94.07888" stroke-width=".26458"><a xlink:href="/eachSiteAreaPage">H</a></tspan></text> 
    <!-- H Up -->
    <text x="37.01683" y="4.6772165" style="line-height:1.25" xml:space="preserve"><tspan x="37.01683" y="4.6772165" stroke-width=".26458"><a xlink:href="/eachSiteAreaPage">H</a></tspan></text>
    <text x="9.0871639" y="47.573975" style="line-height:1.25" xml:space="preserve"><tspan x="9.0871639" y="47.573975" stroke-width=".26458"><a xlink:href="/eachSiteAreaPage">J</a></tspan></text>
   </g>
  </g>
  <g fill="none" stroke-width=".383">
   <path d="m142.25 88.246-5.9945-0.0091" stroke="#ff5700"/>
   <path d="m142.28 97.957-5.9945-0.0091" stroke="#773281"/>
   <path d="m142.28 92.061-5.9945-9e-3" stroke="#c87137"/>
  </g>
  <g font-family="sans-serif" stroke-width=".26458">
   <text x="143.25298" y="89.013397" font-size="2.8222px" style="line-height:1.25" xml:space="preserve"><tspan x="143.25298" y="89.013397" font-size="2.8222px" stroke-width=".26458">Dam</tspan></text>
   <text x="143.12126" y="96.939087" font-size="2.8222px" style="line-height:1.25" xml:space="preserve"><tspan x="143.12126" y="96.939087">Roads bounded</tspan><tspan x="143.12126" y="100.46687">by walls</tspan></text>
   <text x="143.12126" y="92.970329" font-size="2.8222px" style="line-height:1.25" xml:space="preserve"><tspan x="143.12126" y="92.970329" font-size="2.8222px" stroke-width=".26458">Fortified walls</tspan></text>
  </g>
 </g>
</svg>
